    <svg xmlns="http://www.w3.org/2000/svg" width="512" height="512" viewBox="0 0 512 512" style="overflow: visible;" data-bbox="55.485 96.33 401.031 319.339"><g transform="matrix(0.34636119708221547, 0, 0, 0.34636119708221547, 20.480204701601636, 152.27035647032676)" data-uid="o_fbff8m022_7"><svg id="OBJECTS" xmlns="http://www.w3.org/2000/svg" viewBox="0 0 500 500" width="500" height="500" data-uid="o_fbff8m022_8"><path class="cls-1" fill="#af8ae2" data-type="rect" data-x="118.17" data-y="148.48" data-width="267.42" data-height="195.42" d="M118.17 148.48H385.59000000000003 V343.9 H118.17 Z" data-uid="o_fbff8m022_9"></path><g data-uid="o_fbff8m022_10"><path class="cls-1" d="m445.95 252.27h-12.72v-101.14c0-28.6-23.26-51.86-51.86-51.86H119.74c-28.59 0-51.86 23.26-51.86 51.86v101.14h-12.72v-101.14c0-35.61 28.97-64.58 64.58-64.58h261.63c35.61 0 64.58 28.97 64.58 64.58v101.14Z" fill="#af8ae2" data-uid="o_fbff8m022_11"></path><path class="cls-2" d="m381.34 130.96H119.77c-11.57 0-20.94 9.39-20.94 20.94v191.98c0 11.55 9.37 20.92 20.94 20.92h261.57c11.55 0 20.94-9.37 20.94-20.92v-191.98c0-11.55-9.39-20.94-20.94-20.94Zm-7.05 206.09H124.7v-178.33h249.59v178.33Z" fill="#fff" data-uid="o_fbff8m022_12"></path><path class="cls-1" d="m439.27 413.44H60.73c-17.6 0-31.87-14.27-31.87-31.87h442.26c0 17.6-14.27 31.87-31.87 31.87Z" fill="#af8ae2" data-uid="o_fbff8m022_13"></path><path class="cls-2" d="m33.91 195.61h47.28v109.08h-47.28c-2.78 0-5.04-2.26-5.04-5.04v-99c0-2.78 2.26-5.04 5.04-5.04Z" fill="#fff" data-uid="o_fbff8m022_14"></path><path class="cls-2" d="m423.85 195.61h47.28v109.08h-47.28c-2.78 0-5.04-2.26-5.04-5.04v-99c0-2.78 2.26-5.04 5.04-5.04Z" transform="matrix(-1, 1.2246468525851679e-16, -1.2246468525851679e-16, -1, 889.9500122070312, 500.29998779296875)" fill="#fff" data-uid="o_fbff8m022_15"></path></g><g data-uid="o_fbff8m022_16"><path class="cls-3" d="m181.27 266.18h0c-8.33 0-15.08-6.75-15.08-15.08v-34.24c0-8.33 6.75-15.08 15.08-15.08h0c8.33 0 15.08 6.75 15.08 15.08v34.24c0 8.33-6.75 15.08-15.08 15.08Z" fill="#3b2d4c" data-uid="o_fbff8m022_17"></path><path class="cls-3" d="m319.84 266.18h0c-8.33 0-15.08-6.75-15.08-15.08v-34.24c0-8.33 6.75-15.08 15.08-15.08h0c8.33 0 15.08 6.75 15.08 15.08v34.24c0 8.33-6.75 15.08-15.08 15.08Z" fill="#3b2d4c" data-uid="o_fbff8m022_18"></path><path class="cls-3" d="m251.88 300.97c-20.72 0-37.58-16.86-37.58-37.58h10.07c0 15.17 12.34 27.51 27.51 27.51s27.51-12.34 27.51-27.51h10.07c0 20.72-16.86 37.58-37.58 37.58Z" fill="#3b2d4c" data-uid="o_fbff8m022_19"></path></g></svg></g><path text="DevType" fill="#ffffff" space="preserve" text-anchor="middle" offset="0.5" font-scale="contain" font-size="48" font-family="Fjalla One" transform="matrix(1.9431268613852235, 0, 0, 1.5644047306275874, 337.5403090720294, 279.1531888197422)" data-fl-textpath="" font-style="normal" font-weight="400" data-uid="o_fbff8m022_20" d="M-73.139 0L-73.139-40.03L-66.829-40.03Q-65.399-40.03 -63.869-39.95Q-62.329-39.87 -60.869-39.45Q-59.399-39.02 -58.099-38.14Q-56.799-37.27 -55.819-35.68Q-54.829-34.1 -54.259-31.7Q-53.679-29.3 -53.679-25.83L-53.679-25.83L-53.679-14.2Q-53.679-10.73 -54.259-8.32Q-54.829-5.91 -55.819-4.34Q-56.799-2.77 -58.099-1.89Q-59.399-1.01 -60.869-0.59Q-62.329-0.16 -63.869-0.08Q-65.399 0 -66.829 0L-66.829 0L-73.139 0ZM-67.069-4.24L-65.519-4.24Q-63.879-4.24 -62.809-4.66Q-61.749-5.09 -61.129-6.15Q-60.509-7.22 -60.269-9.06Q-60.039-10.9 -60.039-13.71L-60.039-13.71L-60.039-26.13Q-60.039-28.95 -60.269-30.79Q-60.509-32.63 -61.129-33.69Q-61.749-34.76 -62.809-35.18Q-63.879-35.6 -65.519-35.6L-65.519-35.6L-67.069-35.6L-67.069-4.24ZM-40.861 0.35L-40.861 0.35Q-42.951 0.35 -44.551-0.42Q-46.161-1.2 -47.261-2.84Q-48.361-4.48 -48.921-7.04Q-49.491-9.61 -49.491-13.22L-49.491-13.22L-49.491-19.31Q-49.491-22.38 -49.031-24.57Q-48.571-26.77 -47.831-28.25Q-47.101-29.74 -46.121-30.61Q-45.151-31.48 -44.121-31.93Q-43.091-32.39 -42.071-32.52Q-41.051-32.65 -40.181-32.65L-40.181-32.65Q-38.591-32.65 -37.111-32.17Q-35.641-31.69 -34.511-30.53Q-33.391-29.37 -32.721-27.42Q-32.051-25.48 -32.051-22.57L-32.051-22.57Q-32.051-21.59 -32.111-20.58Q-32.171-19.57 -32.261-18.6Q-32.351-17.63 -32.511-16.71Q-32.661-15.8 -32.821-15.02L-32.821-15.02L-43.531-15.02L-43.531-11.74Q-43.531-9.63 -43.371-8.19Q-43.211-6.75 -42.821-5.87Q-42.431-4.99 -41.761-4.61Q-41.101-4.22 -40.091-4.22L-40.091-4.22Q-39.551-4.22 -39.031-4.44Q-38.521-4.66 -38.131-5.18Q-37.741-5.7 -37.511-6.55Q-37.281-7.41 -37.281-8.67L-37.281-8.67L-37.281-9.68L-32.331-9.68L-32.331-8.44Q-32.331-3.84 -34.521-1.75Q-36.711 0.35 -40.861 0.35ZM-43.531-19.01L-37.581-19.01Q-37.561-19.27 -37.531-19.7Q-37.511-20.13 -37.501-20.6Q-37.491-21.07 -37.491-21.53Q-37.491-21.98 -37.491-22.31L-37.491-22.31Q-37.491-25.5 -38.241-26.91Q-38.991-28.31 -40.461-28.31L-40.461-28.31Q-41.241-28.31 -41.821-27.95Q-42.411-27.59 -42.781-26.73Q-43.161-25.88 -43.351-24.47Q-43.531-23.06 -43.531-20.98L-43.531-20.98L-43.531-19.01ZM-22.442 0L-29.702-32.27L-23.802-32.27L-20.682-15.12L-19.912-8.25L-19.722-8.25L-18.832-15.12L-15.742-32.27L-10.022-32.27L-17.382 0L-22.442 0ZM-2.468 0L-2.468-35.25L-8.918-35.25L-8.918-40.03L 10.022-40.03L 10.022-35.25L 3.602-35.25L 3.602 0L-2.468 0ZM 12.529 6.21L 12.529 6.21Q 13.859 6.4  14.989 6.13Q 16.109 5.86  16.919 5.11Q 17.729 4.36  18.209 3.13Q 18.689 1.9  18.759 0.19L 18.759 0.19L 11.119-32.27L 17.149-32.27L 20.539-14.41L 21.529-8.25L 21.719-8.25L 22.399-14.41L 25.139-32.27L 30.969-32.27L 24.179 1.2Q 23.729 3.52  23.039 5.25Q 22.349 6.98  21.329 8.13Q 20.309 9.28  18.899 9.86Q 17.499 10.43  15.619 10.43L 15.619 10.43Q 14.099 10.43  12.499 9.84L 12.499 9.84L 12.529 6.21ZM 40.536-2.13L 40.726 1.83L 40.726 10.43L 34.796 10.43L 34.796-32.27L 39.436-32.27L 39.976-28.88Q 40.376-29.53  40.926-30.21Q 41.476-30.89  42.206-31.42Q 42.946-31.95  43.876-32.29Q 44.796-32.63  45.946-32.63L 45.946-32.63Q 46.446-32.63  47.136-32.53Q 47.826-32.44  48.566-32.06Q 49.296-31.69  50.036-30.95Q 50.776-30.21  51.356-28.92Q 51.926-27.63  52.286-25.71Q 52.656-23.79  52.656-21.05L 52.656-21.05L 52.656-11.27Q 52.656-8.53  52.286-6.61Q 51.926-4.69  51.336-3.4Q 50.756-2.11  50.006-1.36Q 49.256-0.61  48.476-0.23Q 47.706 0.14  46.976 0.25Q 46.256 0.35  45.716 0.35L 45.716 0.35Q 43.836 0.35  42.586-0.38Q 41.336-1.1  40.536-2.13L 40.536-2.13ZM 40.726-26.09L 40.726-6.59Q 40.906-6.12  41.176-5.7Q 41.446-5.27  41.816-4.95Q 42.176-4.62  42.636-4.42Q 43.086-4.22  43.696-4.22L 43.696-4.22Q 44.356-4.22  44.896-4.46Q 45.436-4.71  45.836-5.36Q 46.226-6  46.456-7.15Q 46.676-8.3  46.676-10.1L 46.676-10.1L 46.676-22.45Q 46.676-24.26  46.456-25.39Q 46.226-26.53  45.846-27.19Q 45.456-27.84  44.916-28.08Q 44.376-28.31  43.726-28.31L 43.726-28.31Q 42.596-28.31  41.886-27.64Q 41.166-26.98  40.726-26.09L 40.726-26.09ZM 65.779 0.35L 65.779 0.35Q 63.689 0.35  62.089-0.42Q 60.479-1.2  59.379-2.84Q 58.279-4.48  57.719-7.04Q 57.149-9.61  57.149-13.22L 57.149-13.22L 57.149-19.31Q 57.149-22.38  57.609-24.57Q 58.069-26.77  58.809-28.25Q 59.539-29.74  60.519-30.61Q 61.489-31.48  62.519-31.93Q 63.549-32.39  64.569-32.52Q 65.589-32.65  66.459-32.65L 66.459-32.65Q 68.049-32.65  69.529-32.17Q 70.999-31.69  72.129-30.53Q 73.249-29.37  73.919-27.42Q 74.589-25.48  74.589-22.57L 74.589-22.57Q 74.589-21.59  74.529-20.58Q 74.469-19.57  74.379-18.6Q 74.289-17.63  74.129-16.71Q 73.979-15.8  73.819-15.02L 73.819-15.02L 63.109-15.02L 63.109-11.74Q 63.109-9.63  63.269-8.19Q 63.429-6.75  63.819-5.87Q 64.209-4.99  64.879-4.61Q 65.539-4.22  66.549-4.22L 66.549-4.22Q 67.089-4.22  67.609-4.44Q 68.119-4.66  68.509-5.18Q 68.899-5.7  69.129-6.55Q 69.359-7.41  69.359-8.67L 69.359-8.67L 69.359-9.68L 74.309-9.68L 74.309-8.44Q 74.309-3.84  72.119-1.75Q 69.929 0.35  65.779 0.35ZM 63.109-19.01L 69.059-19.01Q 69.079-19.27  69.109-19.7Q 69.129-20.13  69.139-20.6Q 69.149-21.07  69.149-21.53Q 69.149-21.98  69.149-22.31L 69.149-22.31Q 69.149-25.5  68.399-26.91Q 67.649-28.31  66.179-28.31L 66.179-28.31Q 65.399-28.31  64.819-27.95Q 64.229-27.59  63.859-26.73Q 63.479-25.88  63.289-24.47Q 63.109-23.06  63.109-20.98L 63.109-20.98L 63.109-19.01Z" style=""></path></svg>